<svg viewBox="8 8 48 48" xmlns="http://www.w3.org/2000/svg">
    <path d="m29.034 11.273h-16.426a1.5 1.5 0 0 0 -1.5 1.5v16.427a1.5 1.5 0 0 0 1.5 1.5h16.426a1.5 1.5 0 0 0 1.5-1.5v-16.427a1.5 1.5 0 0 0 -1.5-1.5zm-1.5 16.427h-13.426v-13.427h13.426zm1.5 5.677h-16.426a1.5 1.5 0 0 0 -1.5 1.5v16.423a1.5 1.5 0 0 0 1.5 1.5h16.426a1.5 1.5 0 0 0 1.5-1.5v-16.425a1.5 1.5 0 0 0 -1.5-1.5zm-1.5 16.423h-13.426v-13.425h13.426zm23.6-16.425h-16.424a1.5 1.5 0 0 0 -1.5 1.5v16.425a1.5 1.5 0 0 0 1.5 1.5h16.425a1.5 1.5 0 0 0 1.5-1.5v-16.425a1.5 1.5 0 0 0 -1.5-1.5zm-1.499 16.425h-13.425v-13.425h13.425zm-8.678-25.222a4.1 4.1 0 1 0 3.931-7.185 4.1 4.1 0 1 0 -3.93 7.186zm1-4.118a1.1 1.1 0 1 1 1.923 1.052 1.1 1.1 0 0 1 -1.923-1.052zm-7.5 1.192a5.938 5.938 0 0 0 -1.171 2.191 1.5 1.5 0 0 0 .157 1.2l1.516 2.49a1.5 1.5 0 0 0 .995.693 5.958 5.958 0 0 0 2.485-.035l.826.452a5.956 5.956 0 0 0 1.312 2.112 1.5 1.5 0 0 0 1.085.464h.038l2.914-.068a1.5 1.5 0 0 0 1.1-.515 5.95 5.95 0 0 0 1.212-2.169l.8-.49a5.913 5.913 0 0 0 2.486-.082 1.5 1.5 0 0 0 .961-.737l1.4-2.557a1.506 1.506 0 0 0 .1-1.209 5.942 5.942 0 0 0 -1.272-2.133l-.022-.943a5.935 5.935 0 0 0 1.172-2.19 1.5 1.5 0 0 0 -.158-1.2l-1.515-2.491a1.5 1.5 0 0 0 -1-.694 6 6 0 0 0 -2.482.035l-.827-.453a5.967 5.967 0 0 0 -1.312-2.11 1.562 1.562 0 0 0 -1.12-.464l-2.915.067a1.505 1.505 0 0 0 -1.1.515 5.933 5.933 0 0 0 -1.203 2.169l-.8.489a5.973 5.973 0 0 0 -2.484.079 1.5 1.5 0 0 0 -.962.739l-1.4 2.557a1.5 1.5 0 0 0 -.1 1.208 5.961 5.961 0 0 0 1.272 2.135zm2.487-4.752a3.432 3.432 0 0 1 .435 0 1.5 1.5 0 0 0 1.64.052l2.115-1.287a1.5 1.5 0 0 0 .707-1.479 2.739 2.739 0 0 1 .2-.387l1.43-.033a2.564 2.564 0 0 1 .217.378 1.5 1.5 0 0 0 .775 1.444l2.173 1.188a1.5 1.5 0 0 0 1.634-.127 2.313 2.313 0 0 1 .436-.02l.743 1.222a2.766 2.766 0 0 1 -.218.376 1.5 1.5 0 0 0 -.864 1.393l.057 2.476a1.5 1.5 0 0 0 .927 1.352 2.743 2.743 0 0 1 .235.366l-.686 1.256a2.613 2.613 0 0 1 -.436 0 1.5 1.5 0 0 0 -1.638-.051l-2.116 1.287a1.5 1.5 0 0 0 -.71 1.478 2.592 2.592 0 0 1 -.2.388l-1.429.033a2.679 2.679 0 0 1 -.218-.378 1.5 1.5 0 0 0 -.775-1.445l-2.172-1.189a1.5 1.5 0 0 0 -1.635.128 3.433 3.433 0 0 1 -.434.021l-.737-1.222a2.8 2.8 0 0 1 .219-.378 1.5 1.5 0 0 0 .863-1.392l-.057-2.475a1.5 1.5 0 0 0 -.926-1.353 2.622 2.622 0 0 1 -.237-.367z" fill="#34bcb1"/>
</svg>
