<svg xmlns="http://www.w3.org/2000/svg" version="1.1" viewBox="-5.0 -5.0 110.0 110.0" fill="#777777">
    <path d="m84.375 12.5h-68.75c-5.1758 0-9.375 4.1992-9.375 9.375v56.25c0 5.1758 4.1992 9.375 9.375 9.375h68.75c5.1758 0 9.375-4.1992 9.375-9.375v-56.25c0-5.1758-4.1992-9.375-9.375-9.375zm3.125 65.625c0 0.82812-0.32812 1.625-0.91406 2.2109-0.58594 0.58594-1.3828 0.91406-2.2109 0.91406h-68.75c-1.7266 0-3.125-1.3984-3.125-3.125v-34.375h75zm0-40.625h-75v-6.25h75zm0-12.5h-75v-3.125c0-1.7266 1.3984-3.125 3.125-3.125h68.75c0.82812 0 1.625 0.32812 2.2109 0.91406 0.58594 0.58594 0.91406 1.3828 0.91406 2.2109zm-37.5 43.75c0-1.7266 1.3984-3.125 3.125-3.125h5.8438c1.7266 0 3.125 1.3984 3.125 3.125s-1.3984 3.125-3.125 3.125h-5.8438c-1.7266 0-3.125-1.3984-3.125-3.125zm18.75 0c0-1.7266 1.3984-3.125 3.125-3.125h5.8438c1.7266 0 3.125 1.3984 3.125 3.125s-1.3984 3.125-3.125 3.125h-5.8438c-1.7266 0-3.125-1.3984-3.125-3.125zm-43.75 6.25h9.375c1.6562 0 3.2461-0.66016 4.418-1.832s1.832-2.7617 1.832-4.418v-6.25c0-1.6562-0.66016-3.2461-1.832-4.418s-2.7617-1.832-4.418-1.832h-9.375c-3.4531 0-6.25 2.7969-6.25 6.25v6.25c0 1.6562 0.66016 3.2461 1.832 4.418s2.7617 1.832 4.418 1.832zm0-12.5h9.375v6.25h-9.375z"/>
</svg>
