
<svg width="24px" height="25px" viewBox="0 0 24 25" version="1.1" xmlns="http://www.w3.org/2000/svg" xmlns:xlink="http://www.w3.org/1999/xlink">
    <g id="Page-1" stroke="none" stroke-width="1" fill="none" fill-rule="evenodd">
        <g id="visible-0" fill="#000000" fill-rule="nonzero">
            <path d="M19.604,0.562 L16.258,3.699 C14.988,3.271 13.572,3 12.015,3 C4.446,3 -1.77635684e-15,9.551 -1.77635684e-15,9.551 C-1.77635684e-15,9.551 1.928,12.502 5.146,14.689 L2.235,17.598 L3.649,19.012 L21.019,1.977 L19.604,0.562 Z M13.588,6.341 C10.3,4.888 6.907,8.249 8.323,11.547 L6.597,13.254 C4.783,12.094 3.372,10.604 2.537,9.594 C4.03,7.946 7.354,5 12.015,5 C12.942,5 13.811,5.119 14.625,5.315 L13.588,6.341 Z M10.705,13.772 L15.795,8.779 C16.812,11.89 13.792,14.846 10.705,13.772 Z M24,9.551 C24,9.551 19.748,17 12.015,17 C10.636,17 9.353,16.709 8.164,16.263 L9.778,14.68 C10.493,14.873 11.236,15 12.015,15 C16.806,15 20.119,11.473 21.519,9.636 C20.79,8.814 19.563,7.646 17.932,6.684 L19.421,5.224 C22.403,7.124 24,9.551 24,9.551 Z" id="Shape"></path>
        </g>
        <rect id="Rectangle" fill="#000000" fill-rule="nonzero" x="0" y="23" width="24" height="2"></rect>
    </g>
</svg>