
<svg width="24px" height="22px" viewBox="0 0 24 22" version="1.1" xmlns="http://www.w3.org/2000/svg" xmlns:xlink="http://www.w3.org/1999/xlink">
    <g id="Page-1" stroke="none" stroke-width="1" fill="none" fill-rule="evenodd">
        <g id="visible-1" fill="#000000" fill-rule="nonzero">
            <path d="M12.015,2 C16.766,2 20.078,5.012 21.519,6.636 C20.118,8.473 16.806,12 12.015,12 C7.595,12 4.085,8.464 2.537,6.593 C4.03,4.946 7.354,2 12.015,2 Z M12.015,0 C4.446,0 0,6.551 0,6.551 C0,6.551 4.835,14 12.015,14 C19.748,14 24,6.551 24,6.551 C24,6.551 19.709,0 12.015,0 Z M12,3 C9.791,3 8,4.792 8,7 C8,9.209 9.791,11 12,11 C14.209,11 16,9.209 16,7 C16,4.792 14.209,3 12,3 Z" id="Shape"></path>
            <rect id="Rectangle" x="0" y="20" width="24" height="2"></rect>
        </g>
    </g>
</svg>