
<svg width="24px" height="22px" viewBox="0 0 24 22" version="1.1" xmlns="http://www.w3.org/2000/svg" xmlns:xlink="http://www.w3.org/1999/xlink">
    <g id="Page-1" stroke="none" stroke-width="1" fill="none" fill-rule="evenodd">
        <g id="visible-1" fill="#000000" fill-rule="nonzero">
            <path d="M12.015,10 C16.766,10 20.078,13.012 21.519,14.636 C20.118,16.473 16.806,20 12.015,20 C7.595,20 4.085,16.464 2.537,14.593 C4.03,12.946 7.354,10 12.015,10 Z M12.015,8 C4.446,8 0,14.551 0,14.551 C0,14.551 4.835,22 12.015,22 C19.748,22 24,14.551 24,14.551 C24,14.551 19.709,8 12.015,8 Z M12,11 C9.791,11 8,12.792 8,15 C8,17.209 9.791,19 12,19 C14.209,19 16,17.209 16,15 C16,12.792 14.209,11 12,11 Z" id="Shape"></path>
            <rect id="Rectangle" x="0" y="0" width="24" height="2"></rect>
        </g>
    </g>
</svg>