
<svg width="24px" height="24px" viewBox="0 0 24 24" version="1.1" xmlns="http://www.w3.org/2000/svg" xmlns:xlink="http://www.w3.org/1999/xlink">
    <g id="Page-1" stroke="none" stroke-width="1" fill="none" fill-rule="evenodd">
        <g id="visible-0" fill="#000000" fill-rule="nonzero">
            <path d="M19.604,5.562 L16.258,8.699 C14.988,8.271 13.572,8 12.015,8 C4.446,8 -1.77635684e-15,14.551 -1.77635684e-15,14.551 C-1.77635684e-15,14.551 1.928,17.502 5.146,19.689 L2.235,22.598 L3.649,24.012 L21.019,6.977 L19.604,5.562 Z M13.588,11.341 C10.3,9.888 6.907,13.249 8.323,16.547 L6.597,18.254 C4.783,17.094 3.372,15.604 2.537,14.594 C4.03,12.946 7.354,10 12.015,10 C12.942,10 13.811,10.119 14.625,10.315 L13.588,11.341 Z M10.705,18.772 L15.795,13.779 C16.812,16.89 13.792,19.846 10.705,18.772 Z M24,14.551 C24,14.551 19.748,22 12.015,22 C10.636,22 9.353,21.709 8.164,21.263 L9.778,19.68 C10.493,19.873 11.236,20 12.015,20 C16.806,20 20.119,16.473 21.519,14.636 C20.79,13.814 19.563,12.646 17.932,11.684 L19.421,10.224 C22.403,12.124 24,14.551 24,14.551 Z" id="Shape"></path>
            <rect id="Rectangle" x="0" y="0" width="24" height="2"></rect>
        </g>
    </g>
</svg>