<svg viewBox="0 0 32 32" xmlns="http://www.w3.org/2000/svg"><path d="m25 28h-14a3 3 0 0 1 -3-3v-14a3 3 0 0 1 3-3h14a3 3 0 0 1 3 3v14a3 3 0 0 1 -3 3zm-14-18a1 1 0 0 0 -1 1v14a1 1 0 0 0 1 1h14a1 1 0 0 0 1-1v-14a1 1 0 0 0 -1-1z"/><path d="m9 24h-2a3 3 0 0 1 -3-3v-14a3 3 0 0 1 3-3h14a3 3 0 0 1 3 3v2a1 1 0 0 1 -2 0v-2a1 1 0 0 0 -1-1h-14a1 1 0 0 0 -1 1v14a1 1 0 0 0 1 1h2a1 1 0 0 1 0 2z"/><path d="m15 24a3 3 0 0 1 -2.12-5.12l1-1a3.07 3.07 0 0 1 4.24 0 3 3 0 0 1 0 4.24l-1 1a3 3 0 0 1 -2.12.88zm1-5a1 1 0 0 0 -.71.29l-1 1a1 1 0 0 0 0 1.41 1 1 0 0 0 1.41 0l1-1a1 1 0 0 0 -.7-1.7z"/><path d="m20 19a3 3 0 0 1 -2.12-5.12l1-1a3.07 3.07 0 0 1 4.24 0 3 3 0 0 1 0 4.24l-1 1a3 3 0 0 1 -2.12.88zm1-5a1 1 0 0 0 -.71.29l-1 1a1 1 0 0 0 0 1.41 1 1 0 0 0 1.41 0l1-1a1 1 0 0 0 -.7-1.7z"/><path d="m17 20a1 1 0 0 1 -.71-1.71l2-2a1 1 0 0 1 1.41 1.41l-2 2a1 1 0 0 1 -.7.3z"/></svg>