<svg xmlns="http://www.w3.org/2000/svg" width="18" height="12" viewBox="0 0 18 12">
    <g fill="#FFFFFF" fill-rule="evenodd">
        <path d="M17.105 5H.895C.405 5 0 5.36 0 5.806c0 .438.405.796.895.796h16.21c.49 0 .895-.358.895-.796C18 5.36 17.595 5 17.105 5zM.895 1.602h16.21c.49 0 .895-.36.895-.806C18 .36 17.595 0 17.105 0H.895C.405 0 0 .36 0 .796c0 .446.405.806.895.806zM17.105 10H.895c-.49 0-.895.358-.895.796 0 .446.405.806.895.806h16.21c.49 0 .895-.36.895-.806 0-.438-.405-.796-.895-.796z"/>
    </g>
</svg>
