<svg enable-background="new 0 0 160 160" viewBox="0 0 160 160" xmlns="http://www.w3.org/2000/svg" fill="#df5a5a"><path d="m139.594 22.593h-13.653v-6.078c0-5.938-4.83-10.768-10.768-10.768s-10.768 4.831-10.768 10.768v19.156c0 5.938 4.831 10.768 10.768 10.768s10.768-4.83 10.768-10.768v-6.078h13.653c4.427 0 8.028 3.602 8.028 8.029v17.811h-135.244v-17.811c0-4.427 3.602-8.029 8.028-8.029h13.653v6.078c0 5.938 4.831 10.768 10.768 10.768s10.768-4.83 10.768-10.768v-19.156c0-5.938-4.831-10.768-10.768-10.768s-10.768 4.831-10.768 10.768v6.078h-13.653c-8.287 0-15.028 6.742-15.028 15.029v101.603c0 8.287 6.742 15.028 15.028 15.028h119.188c8.287 0 15.028-6.741 15.028-15.028v-101.603c0-8.287-6.741-15.029-15.028-15.029zm-20.653 13.078c0 2.078-1.69 3.768-3.768 3.768s-3.768-1.69-3.768-3.768v-19.156c0-2.078 1.69-3.768 3.768-3.768s3.768 1.69 3.768 3.768zm-77.882-19.156c0-2.078 1.69-3.768 3.768-3.768s3.768 1.69 3.768 3.768v19.156c0 2.078-1.69 3.768-3.768 3.768s-3.768-1.69-3.768-3.768zm106.563 122.709c0 4.427-3.602 8.028-8.028 8.028h-119.188c-4.427 0-8.028-3.602-8.028-8.028v-76.792h135.245v76.792z"/><path d="m27.965 98.355h22c1.381 0 2.5-1.119 2.5-2.5v-22c0-1.381-1.119-2.5-2.5-2.5h-22c-1.381 0-2.5 1.119-2.5 2.5v22c0 1.381 1.119 2.5 2.5 2.5zm2.5-22h17v17h-17z"/><path d="m69 98.355h22c1.381 0 2.5-1.119 2.5-2.5v-22c0-1.381-1.119-2.5-2.5-2.5h-22c-1.381 0-2.5 1.119-2.5 2.5v22c0 1.381 1.119 2.5 2.5 2.5zm2.5-22h17v17h-17z"/><path d="m110.036 98.355h22c1.381 0 2.5-1.119 2.5-2.5v-22c0-1.381-1.119-2.5-2.5-2.5h-22c-1.381 0-2.5 1.119-2.5 2.5v22c0 1.381 1.119 2.5 2.5 2.5zm2.5-22h17v17h-17z"/><path d="m27.965 137.902h22c1.381 0 2.5-1.119 2.5-2.5v-22c0-1.381-1.119-2.5-2.5-2.5h-22c-1.381 0-2.5 1.119-2.5 2.5v22c0 1.381 1.119 2.5 2.5 2.5zm2.5-22h17v17h-17z"/><path d="m69 137.902h22c1.381 0 2.5-1.119 2.5-2.5v-22c0-1.381-1.119-2.5-2.5-2.5h-22c-1.381 0-2.5 1.119-2.5 2.5v22c0 1.381 1.119 2.5 2.5 2.5zm2.5-22h17v17h-17z"/><path d="m58.095 22.593h43.81v7h-43.81z"/></svg>